<svg id="Layer_1" data-name="Layer 1" xmlns="http://www.w3.org/2000/svg" xmlns:xlink="http://www.w3.org/1999/xlink" viewBox="0 0 1280 800"><defs><style>.cls-1{fill:url(#linear-gradient);}.cls-2{fill:url(#linear-gradient-2);}.cls-3{fill:url(#linear-gradient-3);}.cls-4{fill:url(#linear-gradient-4);}.cls-5{fill:url(#linear-gradient-5);}.cls-6{fill:url(#linear-gradient-6);}.cls-7{fill:url(#linear-gradient-7);}.cls-8{fill:url(#linear-gradient-8);}.cls-9{fill:url(#linear-gradient-9);}.cls-10{fill:url(#linear-gradient-10);}.cls-11{fill:url(#linear-gradient-11);}.cls-12{fill:url(#linear-gradient-12);}.cls-13{fill:url(#linear-gradient-13);}.cls-14{fill:url(#linear-gradient-14);}.cls-15{fill:url(#linear-gradient-15);}.cls-16{fill:url(#linear-gradient-16);}</style><linearGradient id="linear-gradient" x1="557.85" y1="338.63" x2="557.85" y2="504.88" gradientUnits="userSpaceOnUse"><stop offset="0" stop-color="#fff"/><stop offset="0.02" stop-color="#f2f2f2"/><stop offset="0.1" stop-color="#d0d0d0"/><stop offset="0.16" stop-color="#b7b7b7"/><stop offset="0.23" stop-color="#a8a8a8"/><stop offset="0.28" stop-color="#a3a3a3"/><stop offset="0.43" stop-color="#e5e5e5"/><stop offset="0.48" stop-color="#fff"/><stop offset="0.54" stop-color="#dfdfdf"/><stop offset="0.61" stop-color="#bdbdbd"/><stop offset="0.68" stop-color="#a4a4a4"/><stop offset="0.74" stop-color="#959595"/><stop offset="0.8" stop-color="#909090"/><stop offset="0.83" stop-color="#9e9e9e"/><stop offset="0.9" stop-color="#c4c4c4"/><stop offset="1" stop-color="#fff"/></linearGradient><linearGradient id="linear-gradient-2" x1="642.5" y1="338.63" x2="642.5" y2="504.88" xlink:href="#linear-gradient"/><linearGradient id="linear-gradient-3" x1="729.11" y1="338.63" x2="729.11" y2="504.88" xlink:href="#linear-gradient"/><linearGradient id="linear-gradient-4" x1="812.93" y1="338.63" x2="812.93" y2="504.88" xlink:href="#linear-gradient"/><linearGradient id="linear-gradient-5" x1="870.58" y1="338.63" x2="870.58" y2="504.88" xlink:href="#linear-gradient"/><linearGradient id="linear-gradient-6" x1="932.94" y1="338.63" x2="932.94" y2="504.88" xlink:href="#linear-gradient"/><linearGradient id="linear-gradient-7" x1="605.67" y1="338.63" x2="605.67" y2="504.88" xlink:href="#linear-gradient"/><linearGradient id="linear-gradient-8" x1="644.87" y1="338.63" x2="644.87" y2="504.88" xlink:href="#linear-gradient"/><linearGradient id="linear-gradient-9" x1="686.55" y1="338.63" x2="686.55" y2="504.88" xlink:href="#linear-gradient"/><linearGradient id="linear-gradient-10" x1="736.3" y1="338.63" x2="736.3" y2="504.88" xlink:href="#linear-gradient"/><linearGradient id="linear-gradient-11" x1="786.28" y1="338.63" x2="786.28" y2="504.88" xlink:href="#linear-gradient"/><linearGradient id="linear-gradient-12" x1="836.63" y1="338.63" x2="836.63" y2="504.88" xlink:href="#linear-gradient"/><linearGradient id="linear-gradient-13" x1="885.07" y1="338.63" x2="885.07" y2="504.88" xlink:href="#linear-gradient"/><linearGradient id="linear-gradient-14" x1="372.74" y1="370.49" x2="507.59" y2="244.88" xlink:href="#linear-gradient"/><linearGradient id="linear-gradient-15" x1="316.19" y1="504" x2="403.93" y2="407.02" gradientUnits="userSpaceOnUse"><stop offset="0" stop-color="#6bf6e9"/><stop offset="1" stop-color="#2283a4"/></linearGradient><linearGradient id="linear-gradient-16" x1="344.58" y1="529.69" x2="432.32" y2="432.71" xlink:href="#linear-gradient"/></defs><title>Vector</title><rect x="-40.17" y="-10.9" width="1360.34" height="821.43"/><path class="cls-1" d="M561.92,392.54l27.68,38.28H575.53L553.42,400.3,537.25,415v15.81H525.83v-64h11.42v32.71l9.41-8.59,8.5-7.76L573,366.86h16.9Z"/><path class="cls-2" d="M675.12,430.82h-12.8l-5.84-11.42L642.5,392l-14,27.41-5.85,11.42H609.88l5.85-11.42,26.77-52.54,26.77,52.54Z"/><path class="cls-3" d="M761.09,366.86v11.42H714.4a5.89,5.89,0,0,0-5.85,5.85v5.94h41.12v11.42H708.46v29.33H697.13V384.13a17.24,17.24,0,0,1,17.18-17.27Z"/><path class="cls-4" d="M839.29,419.49v11.42H806.86a19.89,19.89,0,0,1-9-2.1,20.28,20.28,0,0,1-9.23-9.32,19.88,19.88,0,0,1-2.1-8.95V367H798v44.68a9.12,9.12,0,0,0,7.77,7.77Z"/><path class="cls-5" d="M864.87,430.82v-64h11.42v64Z"/><path class="cls-6" d="M912.38,398.84a20.59,20.59,0,0,0,20.56,20.56h32v11.42h-32a32,32,0,0,1,0-64h32v11.42h-32A20.59,20.59,0,0,0,912.38,398.84Z"/><polygon class="cls-7" points="596.75 487.71 599.74 487.71 599.74 475.82 611.35 475.82 611.35 472.75 599.74 472.75 599.74 463.84 614.59 463.84 614.59 460.82 596.75 460.82 596.75 487.71"/><rect class="cls-8" x="643.38" y="460.82" width="2.98" height="26.89"/><polygon class="cls-9" points="693.95 480.71 676.17 459.45 676.17 487.71 679.16 487.71 679.16 467.91 696.94 489.2 696.94 460.82 693.95 460.82 693.95 480.71"/><polygon class="cls-10" points="723.7 489.02 726.99 489.02 736.32 468.2 745.65 489.02 748.91 489.02 736.32 460.82 723.7 489.02"/><polygon class="cls-11" points="793.68 480.71 775.9 459.45 775.9 487.71 778.89 487.71 778.89 467.91 796.67 489.2 796.67 460.82 793.68 460.82 793.68 480.71"/><path class="cls-12" d="M846.17,481a11,11,0,0,1-3.69,2.92,10.49,10.49,0,0,1-9.84-.39,10.85,10.85,0,0,1-3.87-3.92,10.79,10.79,0,0,1,0-10.77,10.75,10.75,0,0,1,3.87-3.91,10.4,10.4,0,0,1,9.58-.51,10.71,10.71,0,0,1,3.53,2.62l.41.45,2.29-2L848,465a14,14,0,0,0-4.6-3.33,13.37,13.37,0,0,0-12.31.69,13.75,13.75,0,0,0-5,5,13.56,13.56,0,0,0-1.82,6.86,13.72,13.72,0,0,0,1.82,6.88,13.88,13.88,0,0,0,5,5,13.45,13.45,0,0,0,12.7.51,13.48,13.48,0,0,0,4.71-3.78l.38-.48-2.36-1.84Z"/><polygon class="cls-13" points="893.99 463.84 893.99 460.82 876.15 460.82 876.15 487.71 893.99 487.71 893.99 484.65 879.13 484.65 879.13 475.78 890.71 475.78 890.71 472.75 879.13 472.75 879.13 463.84 893.99 463.84"/><polygon class="cls-14" points="437.18 349.43 461.05 373.29 505.58 328.76 419.09 242.27 419.09 290 457.85 328.76 437.18 349.43"/><polygon class="cls-15" points="464.88 430.56 434.33 400.01 434.33 400 410.46 376.14 410.46 376.13 410.28 375.96 410.19 376.04 362.9 328.76 401.67 290 401.67 242.27 315.17 328.76 386.32 399.9 386.3 399.94 410.17 423.8 410.19 423.77 410.38 423.95 410.46 423.87 457.75 471.15 419.09 509.8 419.09 557.54 505.48 471.15 464.89 430.56 464.88 430.56"/><polygon class="cls-16" points="383.45 450.52 359.58 426.65 315.08 471.15 401.67 557.73 401.67 510 362.82 471.15 383.45 450.52"/></svg>