<svg id="Layer_1" data-name="Layer 1" xmlns="http://www.w3.org/2000/svg" xmlns:xlink="http://www.w3.org/1999/xlink" viewBox="0 0 1280 800"><defs><style>.cls-1{fill:url(#linear-gradient);}.cls-2{fill:url(#linear-gradient-2);}.cls-3{fill:url(#linear-gradient-3);}</style><linearGradient id="linear-gradient" x1="593.35" y1="386.61" x2="795.79" y2="198.04" gradientUnits="userSpaceOnUse"><stop offset="0" stop-color="#fff"/><stop offset="0.02" stop-color="#f2f2f2"/><stop offset="0.1" stop-color="#d0d0d0"/><stop offset="0.16" stop-color="#b7b7b7"/><stop offset="0.23" stop-color="#a8a8a8"/><stop offset="0.28" stop-color="#a3a3a3"/><stop offset="0.43" stop-color="#e5e5e5"/><stop offset="0.48" stop-color="#fff"/><stop offset="0.54" stop-color="#dfdfdf"/><stop offset="0.61" stop-color="#bdbdbd"/><stop offset="0.68" stop-color="#a4a4a4"/><stop offset="0.74" stop-color="#959595"/><stop offset="0.8" stop-color="#909090"/><stop offset="0.83" stop-color="#9e9e9e"/><stop offset="0.9" stop-color="#c4c4c4"/><stop offset="1" stop-color="#fff"/></linearGradient><linearGradient id="linear-gradient-2" x1="508.45" y1="587.05" x2="640.18" y2="441.46" gradientUnits="userSpaceOnUse"><stop offset="0" stop-color="#6bf6e9"/><stop offset="1" stop-color="#2283a4"/></linearGradient><linearGradient id="linear-gradient-3" x1="551.07" y1="625.61" x2="682.8" y2="480.02" xlink:href="#linear-gradient"/></defs><title>Vector</title><rect x="-33.05" y="-10.71" width="1360.34" height="821.43"/><polygon class="cls-1" points="690.09 354.98 725.92 390.81 792.78 323.96 662.93 194.11 662.93 265.77 721.12 323.96 690.09 354.98"/><polygon class="cls-2" points="731.68 476.79 685.81 430.93 685.81 430.91 649.98 395.1 649.98 395.08 649.7 394.82 649.57 394.93 578.58 323.96 636.77 265.77 636.77 194.11 506.92 323.96 613.74 430.76 613.71 430.81 649.54 466.64 649.57 466.59 649.85 466.87 649.98 466.74 720.97 537.73 662.93 595.76 662.93 667.42 792.63 537.73 731.69 476.79 731.68 476.79"/><polygon class="cls-3" points="609.43 506.76 573.6 470.93 506.79 537.73 636.77 667.72 636.77 596.05 578.45 537.73 609.43 506.76"/></svg>